<?xml version="1.0" encoding="iso-8859-1"?>
<svg version="1.1" id="Layer_1" xmlns="http://www.w3.org/2000/svg" xmlns:xlink="http://www.w3.org/1999/xlink" x="0px" y="0px"
	 viewBox="0 0 1100 500" style="enable-background:new 0 0 1100 500;" xml:space="preserve">
<g style="opacity:0.35;">
	<circle style="fill:#005353;" cx="364.864" cy="238.669" r="93.336"/>
</g>
<text x="0" y="290" style="font-size:180px; font-family:arial;" fill="#37A4A4">Open</text>
<text x="530" y="400" style="font-size:180px; font-family:arial;" fill="#37A4A4">SEO</text>
<path style="fill:#008585;" d="M366.44,369.029c-41.768-0.072-80.984-20.08-105.56-53.848l11.608-8.448c37.608,51.864,110.144,63.416,162.008,25.808
	s63.416-110.144,25.808-162.008s-110.144-63.416-162.008-25.808c-14.28,10.352-26.008,23.832-34.296,39.4l-12.656-6.768
	c33.84-63.576,112.808-87.672,176.384-53.84s87.672,112.808,53.84,176.384C458.912,342.445,414.64,369.029,366.44,369.029z"/>
<polygon style="fill:#008585;" points="501.864,403.797 440.72,342.525 450.872,332.389 512,393.661 "/>

</svg>
